<mxfile host="app.diagrams.net" modified="2024-03-13T07:47:08.126Z" agent="Mozilla/5.0 (Windows NT 10.0; Win64; x64) AppleWebKit/537.36 (KHTML, like Gecko) Chrome/119.0.0.0 Safari/537.36" version="23.1.6" etag="tWdAODI3ChnQkLcATwMV" type="github">
  <diagram name="第 1 页" id="AlVCs5oqaAo5J-0FXfMP">
    <mxGraphModel>
      <root>
        <mxCell id="0" />
        <mxCell id="1" parent="0" />
      </root>
    </mxGraphModel>
  </diagram>
</mxfile>
